<?xml version="1.0"?>
<svg xmlns="http://www.w3.org/2000/svg" height="512px" viewBox="0 -64 480.06463 480" width="512px" class=""><g><path d="m240.03125 272.050781c-3.753906-.007812-7.457031-.886719-10.816406-2.5625l-117.183594-60.640625v71.203125c0 31.917969 55.042969 56 128 56 72.960938 0 128-24.082031 128-56v-71.203125l-116.96875 60.539063c-3.417969 1.734375-7.195312 2.644531-11.03125 2.664062zm0 0" data-original="#000000" class="active-path" data-old_color="#000000" fill="#FFFFFF"/><path d="m475.710938 120.929688-232-120c-2.304688-1.195313-5.050782-1.195313-7.359376 0l-232 120c-2.671874 1.367187-4.351562 4.117187-4.351562 7.121093 0 3 1.679688 5.75 4.351562 7.117188l232 120c2.3125 1.175781 5.046876 1.175781 7.359376 0l156.320312-80.855469v-1.191406l-163.101562-21.273438c-13.148438-1.699218-22.425782-13.734375-20.726563-26.882812 1.703125-13.144532 13.738281-22.425782 26.886719-20.722656l184.046875 24c11 1.480468 19.546875 10.308593 20.671875 21.351562l27.902344-14.402344c2.671874-1.367187 4.355468-4.117187 4.355468-7.117187 0-3.003907-1.683594-5.753907-4.355468-7.121094zm0 0" data-original="#000000" class="active-path" data-old_color="#000000" fill="#FFFFFF"/><path d="m432.03125 209.527344v-57.476563c.003906-4.023437-2.980469-7.417969-6.96875-7.9375l-184-24c-4.382812-.570312-8.394531 2.519531-8.964844 6.902344-.570312 4.382813 2.519532 8.398437 6.902344 8.96875l177.03125 23.089844v50.453125c-9.550781 3.378906-15.953125 12.390625-16 22.523437v112c0 4.417969 3.582031 8 8 8h32c4.417969 0 8-3.582031 8-8v-112c-.042969-10.132812-6.445312-19.144531-16-22.523437zm0 0" data-original="#000000" class="active-path" data-old_color="#000000" fill="#FFFFFF"/></g> </svg>
